<svg xmlns="http://www.w3.org/2000/svg" viewBox="0 0 384 512">
  <path fill="currentColor" d="M318.7 268.7c-.3-37.1 16.4-65.1 50-85.5-18.8-26.9-47.3-41.8-84.7-44.7-35.5-2.8-74.3 20.7-88.5 20.7-15 0-49.4-19.8-76.4-19.8C63.1 139.6 0 184.8 0 283.3c0 25.3 4.6 51.3 13.8 78.1 12.3 35.5 57 122.5 103.5 121 24.3-.6 41.5-17 73.2-17 31 0 47.3 17 75.9 17 46.8-.7 88.7-82.5 100.5-118.2-63.8-30-48.7-108.3-48.1-115.5zM259.1 96.7c27.3-32.4 24.8-61.9 24-72.7-24.3 1.4-52.4 16.3-68.8 35.6-17.6 20.7-28.5 46.5-26.3 73.4 26.9 2 51.3-11.8 71.1-36.3z"/>
</svg>
